PathFileType	4	(X/Y/Z)	 control3min.trc
DataRate	CameraRate	NumFrames	NumMarkers	Units	OrigDataRate	OrigDataStartFrame	OrigNumFrames
200	200	9	35	m	200	751	1000
Frame#	Time	C7			LSH			RSH			MAN			RASI			LASI			HIPR			HIPL			RPSI			LPSI			COX			RTHI1			RTHI2			RTHI3			RTHI4			RSHA1			RSHA2			RSHA3			RSHA4			RHEEL			RMET5			RMET1			RTOE			LTHI1			LTHI2			LTHI3			LTHI4			LSHA1			LSHA2			LSHA3			LSHA4			LHEEL			LMET5			LMET1			LTOE			
		X1	Y1	Z1	X2	Y2	Z2	X3	Y3	Z3	X4	Y4	Z4	X5	Y5	Z5	X6	Y6	Z6	X7	Y7	Z7	X8	Y8	Z8	X9	Y9	Z9	X10	Y10	Z10	X11	Y11	Z11	X12	Y12	Z12	X13	Y13	Z13	X14	Y14	Z14	X15	Y15	Z15	X16	Y16	Z16	X17	Y17	Z17	X18	Y18	Z18	X19	Y19	Z19	X20	Y20	Z20	X21	Y21	Z21	X22	Y22	Z22	X23	Y23	Z23	X24	Y24	Z24	X25	Y25	Z25	X26	Y26	Z26	X27	Y27	Z27	X28	Y28	Z28	X29	Y29	Z29	X30	Y30	Z30	X31	Y31	Z31	X32	Y32	Z32	X33	Y33	Z33	X34	Y34	Z34	X35	Y35	Z35	
751	3.7550	-0.288012	1.448058	-0.545256	-0.214784	1.445595	-0.717479	-0.237357	1.436051	-0.381276	-0.157670	1.405825	-0.547374	-0.130771	1.008209	-0.430839	-0.122323	1.009354	-0.650783	-0.186664	1.067762	-0.406495	-0.177972	1.058685	-0.684035	-0.283178	1.050304	-0.492480	-0.283078	1.049492	-0.598873	-0.284954	1.056532	-0.542482	-0.230157	0.810899	-0.374885	-0.213630	0.753726	-0.370733	-0.150993	0.770335	-0.364033	-0.160597	0.830705	-0.368344	-0.239009	0.426099	-0.358620	-0.253366	0.385241	-0.361645	-0.194325	0.372062	-0.369311	-0.184916	0.411468	-0.370282	-0.333411	0.146055	-0.416319	-0.204778	0.057409	-0.368379	-0.171110	0.061754	-0.431252	-0.147897	0.051027	-0.425769	-0.218738	0.805626	-0.720422	-0.195640	0.748600	-0.722885	-0.134032	0.767619	-0.725960	-0.148174	0.826312	-0.724047	-0.247899	0.391290	-0.725637	-0.262053	0.353324	-0.724384	-0.201199	0.338225	-0.718128	-0.194864	0.381728	-0.720848	-0.342309	0.134310	-0.676093	-0.210673	0.057729	-0.727877	-0.173880	0.061002	-0.669402	-0.150904	0.050600	-0.670930	
752	3.7600	-0.286504	1.449275	-0.549646	-0.214704	1.445231	-0.717663	-0.237539	1.435551	-0.381124	-0.158243	1.405675	-0.547324	-0.131184	1.008174	-0.430852	-0.122725	1.009112	-0.650923	-0.187101	1.067620	-0.406527	-0.178649	1.058265	-0.684130	-0.283665	1.050007	-0.492521	-0.283550	1.049038	-0.598913	-0.285442	1.056200	-0.542516	-0.230206	0.810574	-0.374794	-0.213517	0.753440	-0.370772	-0.150784	0.770127	-0.364242	-0.160657	0.830537	-0.368569	-0.238677	0.426393	-0.358760	-0.253262	0.385593	-0.361618	-0.194338	0.372091	-0.369603	-0.184727	0.411433	-0.370736	-0.334785	0.146206	-0.416018	-0.205500	0.058591	-0.368048	-0.172098	0.062692	-0.431036	-0.148805	0.052008	-0.425519	-0.218765	0.804877	-0.720373	-0.195426	0.747939	-0.722691	-0.133891	0.767217	-0.725631	-0.148279	0.825855	-0.723836	-0.247553	0.391474	-0.725431	-0.261877	0.353561	-0.724246	-0.201085	0.338214	-0.717913	-0.194560	0.381688	-0.720583	-0.343182	0.134400	-0.676264	-0.211092	0.058486	-0.727966	-0.174447	0.061517	-0.669389	-0.151408	0.051015	-0.670884	
753	3.7650	-0.286723	1.448816	-0.549599	-0.215255	1.444736	-0.717826	-0.237735	1.434780	-0.380955	-0.158888	1.405227	-0.547270	-0.131604	1.007923	-0.430828	-0.123148	1.008629	-0.651073	-0.187603	1.067220	-0.406552	-0.179332	1.057581	-0.684215	-0.284197	1.049381	-0.492579	-0.284069	1.048246	-0.598953	-0.285967	1.055550	-0.542566	-0.230147	0.810021	-0.374653	-0.213274	0.752936	-0.370787	-0.150435	0.769700	-0.364431	-0.160612	0.830160	-0.368776	-0.238338	0.426498	-0.358891	-0.253181	0.385771	-0.361622	-0.194380	0.371905	-0.369918	-0.184546	0.411184	-0.371184	-0.336256	0.146192	-0.415748	-0.206391	0.059540	-0.367882	-0.173285	0.063433	-0.431012	-0.149907	0.052789	-0.425491	-0.218714	0.803932	-0.720354	-0.195127	0.747090	-0.722495	-0.133661	0.766625	-0.725207	-0.148297	0.825206	-0.723551	-0.247130	0.391448	-0.725202	-0.261647	0.353597	-0.724081	-0.200933	0.337975	-0.717641	-0.194199	0.381408	-0.720271	-0.344130	0.134352	-0.676421	-0.211600	0.058995	-0.727880	-0.175170	0.061806	-0.669171	-0.152075	0.051210	-0.670604	
754	3.7700	-0.286878	1.448103	-0.549639	-0.215416	1.443874	-0.718084	-0.237944	1.433744	-0.380768	-0.159371	1.404483	-0.547241	-0.132034	1.007445	-0.430771	-0.123587	1.007900	-0.651228	-0.188153	1.066560	-0.406573	-0.180011	1.056635	-0.684289	-0.284770	1.048441	-0.492655	-0.284633	1.047129	-0.598994	-0.286528	1.054587	-0.542628	-0.229962	0.809249	-0.374434	-0.212907	0.752209	-0.370788	-0.150002	0.769091	-0.364685	-0.160455	0.829569	-0.368970	-0.238007	0.426371	-0.359006	-0.253126	0.385736	-0.361650	-0.194461	0.371481	-0.370257	-0.184375	0.410701	-0.371597	-0.337848	0.146045	-0.415495	-0.207429	0.060238	-0.367887	-0.174670	0.063971	-0.431193	-0.151202	0.053364	-0.425715	-0.218576	0.802798	-0.720357	-0.194739	0.746059	-0.722293	-0.133344	0.765836	-0.724697	-0.148224	0.824366	-0.723208	-0.246643	0.391186	-0.724952	-0.261362	0.353413	-0.723881	-0.200745	0.337484	-0.717313	-0.193784	0.380884	-0.719911	-0.345138	0.134174	-0.676557	-0.212195	0.059243	-0.727624	-0.176036	0.061856	-0.668743	-0.152905	0.051165	-0.670097	
755	3.7750	-0.286974	1.447291	-0.549836	-0.215498	1.442708	-0.718366	-0.238162	1.432452	-0.380564	-0.159709	1.403434	-0.547235	-0.132472	1.006735	-0.430689	-0.124046	1.006922	-0.651383	-0.188743	1.065650	-0.406593	-0.180676	1.055431	-0.684352	-0.285381	1.047197	-0.492740	-0.285240	1.045699	-0.599038	-0.287117	1.053333	-0.542692	-0.229666	0.808260	-0.374179	-0.212425	0.751260	-0.370764	-0.149472	0.768265	-0.364980	-0.160188	0.828759	-0.369150	-0.237680	0.425997	-0.359089	-0.253097	0.385472	-0.361695	-0.194577	0.370809	-0.370630	-0.184220	0.409973	-0.371969	-0.339594	0.145792	-0.415230	-0.208598	0.060683	-0.368065	-0.176246	0.064293	-0.431587	-0.152678	0.053714	-0.426200	-0.218341	0.801477	-0.720380	-0.194256	0.744839	-0.722082	-0.132932	0.764862	-0.724114	-0.148050	0.823342	-0.722816	-0.246107	0.390696	-0.724710	-0.261035	0.353005	-0.723685	-0.200531	0.336733	-0.716929	-0.193319	0.380119	-0.719512	-0.346194	0.133861	-0.676672	-0.212876	0.059204	-0.727195	-0.177033	0.061655	-0.668124	-0.153876	0.050870	-0.669374	
756	3.7800	-0.287136	1.446224	-0.549837	-0.215637	1.441297	-0.718649	-0.238383	1.430916	-0.380341	-0.159912	1.402084	-0.547253	-0.132922	1.005785	-0.430582	-0.124522	1.005697	-0.651532	-0.189368	1.064489	-0.406611	-0.181324	1.053979	-0.684411	-0.286025	1.045659	-0.492835	-0.285888	1.043969	-0.599082	-0.287716	1.051813	-0.542762	-0.229257	0.807034	-0.373882	-0.211837	0.750091	-0.370735	-0.148850	0.767205	-0.365325	-0.159810	0.827719	-0.369325	-0.237352	0.425368	-0.359141	-0.253088	0.384974	-0.361759	-0.194724	0.369873	-0.371034	-0.184081	0.408980	-0.372343	-0.341460	0.145435	-0.414933	-0.209885	0.060863	-0.368419	-0.178006	0.064381	-0.432194	-0.154335	0.053832	-0.426936	-0.218003	0.799972	-0.720417	-0.193679	0.743432	-0.721860	-0.132423	0.763691	-0.723459	-0.147776	0.822125	-0.722378	-0.245525	0.389973	-0.724481	-0.260668	0.352377	-0.723502	-0.200290	0.335737	-0.716498	-0.192813	0.379097	-0.719081	-0.347287	0.133400	-0.676754	-0.213641	0.058865	-0.726598	-0.178149	0.061203	-0.667327	-0.154983	0.050313	-0.668450	
757	3.7850	-0.287364	1.444912	-0.549581	-0.215730	1.439601	-0.718927	-0.238584	1.429134	-0.380111	-0.160037	1.400475	-0.547282	-0.133396	1.004586	-0.430465	-0.125013	1.004233	-0.651667	-0.190018	1.063075	-0.406625	-0.181955	1.052280	-0.684466	-0.286699	1.043837	-0.492940	-0.286569	1.041950	-0.599122	-0.288332	1.050017	-0.542842	-0.228745	0.805589	-0.373567	-0.211151	0.748695	-0.370702	-0.148168	0.765935	-0.365731	-0.159326	0.826450	-0.369501	-0.237012	0.424485	-0.359158	-0.253084	0.384226	-0.361832	-0.194887	0.368678	-0.371474	-0.183946	0.407712	-0.372728	-0.343464	0.144974	-0.414606	-0.211293	0.060766	-0.368947	-0.179935	0.064228	-0.432995	-0.156169	0.053690	-0.427906	-0.217561	0.798278	-0.720466	-0.193005	0.741834	-0.721623	-0.131824	0.762321	-0.722741	-0.147401	0.820714	-0.721891	-0.244892	0.389006	-0.724254	-0.260260	0.351504	-0.723316	-0.200016	0.334481	-0.716020	-0.192268	0.377819	-0.718625	-0.348408	0.132799	-0.676794	-0.214491	0.058224	-0.725847	-0.179372	0.060501	-0.666361	-0.156205	0.049498	-0.667333	
758	3.7900	-0.287453	1.443364	-0.549658	-0.215874	1.437693	-0.719244	-0.238756	1.427088	-0.379884	-0.160092	1.398598	-0.547319	-0.133895	1.003142	-0.430341	-0.125514	1.002526	-0.651787	-0.190693	1.061417	-0.406627	-0.182575	1.050331	-0.684513	-0.287396	1.041738	-0.493051	-0.287273	1.039662	-0.599170	-0.288968	1.047953	-0.542918	-0.228142	0.803921	-0.373239	-0.210388	0.747058	-0.370673	-0.147436	0.764438	-0.366211	-0.158750	0.824942	-0.369680	-0.236659	0.423331	-0.359197	-0.253064	0.383219	-0.361905	-0.195058	0.367219	-0.371949	-0.183802	0.406177	-0.373125	-0.345624	0.144429	-0.414250	-0.212817	0.060372	-0.369643	-0.182035	0.063814	-0.433975	-0.158178	0.053276	-0.429088	-0.217015	0.796393	-0.720526	-0.192236	0.740038	-0.721368	-0.131135	0.760751	-0.721966	-0.146932	0.819100	-0.721359	-0.244222	0.387788	-0.724043	-0.259813	0.350385	-0.723135	-0.199713	0.332984	-0.715504	-0.191690	0.376295	-0.718147	-0.349546	0.132057	-0.676802	-0.215424	0.057281	-0.724953	-0.180691	0.059536	-0.665245	-0.157529	0.048417	-0.666053	
759	3.7950	-0.287553	1.441497	-0.549716	-0.215966	1.435488	-0.719507	-0.238887	1.424782	-0.379665	-0.160192	1.396448	-0.547352	-0.134420	1.001460	-0.430210	-0.126023	1.000589	-0.651893	-0.191389	1.059509	-0.406615	-0.183188	1.048138	-0.684554	-0.288118	1.039369	-0.493155	-0.287999	1.037113	-0.599222	-0.289619	1.045635	-0.542992	-0.227466	0.802015	-0.372924	-0.209560	0.745189	-0.370648	-0.146648	0.762690	-0.366716	-0.158097	0.823193	-0.369864	-0.236270	0.421925	-0.359244	-0.253017	0.381958	-0.361971	-0.195210	0.365504	-0.372442	-0.183645	0.404373	-0.373594	-0.347861	0.143733	-0.413884	-0.214464	0.059674	-0.370492	-0.184292	0.063126	-0.435115	-0.160354	0.052569	-0.430458	-0.216372	0.794311	-0.720597	-0.191380	0.738038	-0.721098	-0.130361	0.758984	-0.721138	-0.146374	0.817280	-0.720784	-0.243510	0.386330	-0.723848	-0.259332	0.349027	-0.722965	-0.199380	0.331258	-0.714957	-0.191082	0.374528	-0.717656	-0.350694	0.131165	-0.676769	-0.216428	0.056033	-0.723921	-0.182094	0.058304	-0.664001	-0.158938	0.047068	-0.664620	
